<?xml version="1.0" encoding="UTF-8" standalone="no"?>
<!DOCTYPE svg PUBLIC "-//W3C//DTD SVG 1.1//EN"
 "http://www.w3.org/Graphics/SVG/1.1/DTD/svg11.dtd">
<!-- Generated by graphviz version 2.40.1 (20161225.0304)
 -->
<!-- Title: snakemake_dag Pages: 1 -->
<svg width="466pt" height="476pt"
 viewBox="0.00 0.00 465.50 476.00" xmlns="http://www.w3.org/2000/svg" xmlns:xlink="http://www.w3.org/1999/xlink">
<g id="graph0" class="graph" transform="scale(1 1) rotate(0) translate(4 472)">
<title>snakemake_dag</title>
<polygon fill="#ffffff" stroke="transparent" points="-4,4 -4,-472 461.5,-472 461.5,4 -4,4"/>
<!-- 0 -->
<g id="node1" class="node">
<title>0</title>
<path fill="none" stroke="#d85656" stroke-width="2" stroke-dasharray="5,2" d="M196,-36C196,-36 166,-36 166,-36 160,-36 154,-30 154,-24 154,-24 154,-12 154,-12 154,-6 160,0 166,0 166,0 196,0 196,0 202,0 208,-6 208,-12 208,-12 208,-24 208,-24 208,-30 202,-36 196,-36"/>
<text text-anchor="middle" x="181" y="-15.5" font-family="sans" font-size="10.00" fill="#000000">all</text>
</g>
<!-- 1 -->
<g id="node2" class="node">
<title>1</title>
<path fill="none" stroke="#5682d8" stroke-width="2" stroke-dasharray="5,2" d="M74,-180C74,-180 12,-180 12,-180 6,-180 0,-174 0,-168 0,-168 0,-156 0,-156 0,-150 6,-144 12,-144 12,-144 74,-144 74,-144 80,-144 86,-150 86,-156 86,-156 86,-168 86,-168 86,-174 80,-180 74,-180"/>
<text text-anchor="middle" x="43" y="-159.5" font-family="sans" font-size="10.00" fill="#000000">featureCounts</text>
</g>
<!-- 1&#45;&gt;0 -->
<g id="edge1" class="edge">
<title>1&#45;&gt;0</title>
<path fill="none" stroke="#c0c0c0" stroke-width="2" d="M36.7924,-143.6726C31.3984,-124.1269 26.4993,-93.1351 41,-72 53.0234,-54.4757 106.5898,-37.3542 143.8608,-27.2406"/>
<polygon fill="#c0c0c0" stroke="#c0c0c0" stroke-width="2" points="145.1247,-30.5264 153.893,-24.5793 143.3298,-23.7604 145.1247,-30.5264"/>
</g>
<!-- 2 -->
<g id="node3" class="node">
<title>2</title>
<path fill="none" stroke="#56d86b" stroke-width="2" stroke-dasharray="5,2" d="M166,-252C166,-252 104,-252 104,-252 98,-252 92,-246 92,-240 92,-240 92,-228 92,-228 92,-222 98,-216 104,-216 104,-216 166,-216 166,-216 172,-216 178,-222 178,-228 178,-228 178,-240 178,-240 178,-246 172,-252 166,-252"/>
<text text-anchor="middle" x="135" y="-231.5" font-family="sans" font-size="10.00" fill="#000000">samtools_sort</text>
</g>
<!-- 2&#45;&gt;1 -->
<g id="edge6" class="edge">
<title>2&#45;&gt;1</title>
<path fill="none" stroke="#c0c0c0" stroke-width="2" d="M111.7845,-215.8314C100.453,-206.9632 86.6536,-196.1637 74.3973,-186.5718"/>
<polygon fill="#c0c0c0" stroke="#c0c0c0" stroke-width="2" points="76.2402,-183.5697 66.2081,-180.1628 71.926,-189.0822 76.2402,-183.5697"/>
</g>
<!-- 12 -->
<g id="node13" class="node">
<title>12</title>
<path fill="none" stroke="#d8cb56" stroke-width="2" stroke-dasharray="5,2" d="M153,-180C153,-180 117,-180 117,-180 111,-180 105,-174 105,-168 105,-168 105,-156 105,-156 105,-150 111,-144 117,-144 117,-144 153,-144 153,-144 159,-144 165,-150 165,-156 165,-156 165,-168 165,-168 165,-174 159,-180 153,-180"/>
<text text-anchor="middle" x="135" y="-159.5" font-family="sans" font-size="10.00" fill="#000000">MarkDup</text>
</g>
<!-- 2&#45;&gt;12 -->
<g id="edge16" class="edge">
<title>2&#45;&gt;12</title>
<path fill="none" stroke="#c0c0c0" stroke-width="2" d="M135,-215.8314C135,-208.131 135,-198.9743 135,-190.4166"/>
<polygon fill="#c0c0c0" stroke="#c0c0c0" stroke-width="2" points="138.5001,-190.4132 135,-180.4133 131.5001,-190.4133 138.5001,-190.4132"/>
</g>
<!-- 3 -->
<g id="node4" class="node">
<title>3</title>
<path fill="none" stroke="#56b1d8" stroke-width="2" stroke-dasharray="5,2" d="M177,-324C177,-324 103,-324 103,-324 97,-324 91,-318 91,-312 91,-312 91,-300 91,-300 91,-294 97,-288 103,-288 103,-288 177,-288 177,-288 183,-288 189,-294 189,-300 189,-300 189,-312 189,-312 189,-318 183,-324 177,-324"/>
<text text-anchor="middle" x="140" y="-309" font-family="sans" font-size="10.00" fill="#000000">samtools_merge</text>
<text text-anchor="middle" x="140" y="-298" font-family="sans" font-size="10.00" fill="#000000">sample: GHIV17</text>
</g>
<!-- 3&#45;&gt;2 -->
<g id="edge7" class="edge">
<title>3&#45;&gt;2</title>
<path fill="none" stroke="#c0c0c0" stroke-width="2" d="M138.7383,-287.8314C138.2035,-280.131 137.5677,-270.9743 136.9734,-262.4166"/>
<polygon fill="#c0c0c0" stroke="#c0c0c0" stroke-width="2" points="140.4632,-262.1467 136.2787,-252.4133 133.48,-262.6317 140.4632,-262.1467"/>
</g>
<!-- 4 -->
<g id="node5" class="node">
<title>4</title>
<path fill="none" stroke="#d89c56" stroke-width="2" stroke-dasharray="5,2" d="M174,-396C174,-396 144,-396 144,-396 138,-396 132,-390 132,-384 132,-384 132,-372 132,-372 132,-366 138,-360 144,-360 144,-360 174,-360 174,-360 180,-360 186,-366 186,-372 186,-372 186,-384 186,-384 186,-390 180,-396 174,-396"/>
<text text-anchor="middle" x="159" y="-375.5" font-family="sans" font-size="10.00" fill="#000000">Star</text>
</g>
<!-- 4&#45;&gt;3 -->
<g id="edge8" class="edge">
<title>4&#45;&gt;3</title>
<path fill="none" stroke="#c0c0c0" stroke-width="2" d="M154.2055,-359.8314C152.1511,-352.0463 149.704,-342.7729 147.4244,-334.1347"/>
<polygon fill="#c0c0c0" stroke="#c0c0c0" stroke-width="2" points="150.7948,-333.1892 144.8591,-324.4133 144.0265,-334.9753 150.7948,-333.1892"/>
</g>
<!-- 5 -->
<g id="node6" class="node">
<title>5</title>
<path fill="none" stroke="#56d8c9" stroke-width="2" stroke-dasharray="5,2" d="M244.5,-468C244.5,-468 165.5,-468 165.5,-468 159.5,-468 153.5,-462 153.5,-456 153.5,-456 153.5,-444 153.5,-444 153.5,-438 159.5,-432 165.5,-432 165.5,-432 244.5,-432 244.5,-432 250.5,-432 256.5,-438 256.5,-444 256.5,-444 256.5,-456 256.5,-456 256.5,-462 250.5,-468 244.5,-468"/>
<text text-anchor="middle" x="205" y="-453" font-family="sans" font-size="10.00" fill="#000000">trimmomatic</text>
<text text-anchor="middle" x="205" y="-442" font-family="sans" font-size="10.00" fill="#000000">bamTmp: GHIV17</text>
</g>
<!-- 5&#45;&gt;4 -->
<g id="edge9" class="edge">
<title>5&#45;&gt;4</title>
<path fill="none" stroke="#c0c0c0" stroke-width="2" d="M193.3923,-431.8314C188.2022,-423.7079 181.9768,-413.9637 176.2575,-405.0118"/>
<polygon fill="#c0c0c0" stroke="#c0c0c0" stroke-width="2" points="179.0974,-402.9559 170.764,-396.4133 173.1985,-406.7246 179.0974,-402.9559"/>
</g>
<!-- 10 -->
<g id="node11" class="node">
<title>10</title>
<path fill="none" stroke="#56d89a" stroke-width="2" stroke-dasharray="5,2" d="M296.5,-396C296.5,-396 225.5,-396 225.5,-396 219.5,-396 213.5,-390 213.5,-384 213.5,-384 213.5,-372 213.5,-372 213.5,-366 219.5,-360 225.5,-360 225.5,-360 296.5,-360 296.5,-360 302.5,-360 308.5,-366 308.5,-372 308.5,-372 308.5,-384 308.5,-384 308.5,-390 302.5,-396 296.5,-396"/>
<text text-anchor="middle" x="261" y="-381" font-family="sans" font-size="10.00" fill="#000000">mixcr_align</text>
<text text-anchor="middle" x="261" y="-370" font-family="sans" font-size="10.00" fill="#000000">sample: GHIV17</text>
</g>
<!-- 5&#45;&gt;10 -->
<g id="edge14" class="edge">
<title>5&#45;&gt;10</title>
<path fill="none" stroke="#c0c0c0" stroke-width="2" d="M219.1312,-431.8314C225.5811,-423.5386 233.3445,-413.557 240.4252,-404.4533"/>
<polygon fill="#c0c0c0" stroke="#c0c0c0" stroke-width="2" points="243.3019,-406.4556 246.6786,-396.4133 237.7764,-402.158 243.3019,-406.4556"/>
</g>
<!-- 6 -->
<g id="node7" class="node">
<title>6</title>
<path fill="none" stroke="#9fd856" stroke-width="2" stroke-dasharray="5,2" d="M332,-108C332,-108 242,-108 242,-108 236,-108 230,-102 230,-96 230,-96 230,-84 230,-84 230,-78 236,-72 242,-72 242,-72 332,-72 332,-72 338,-72 344,-78 344,-84 344,-84 344,-96 344,-96 344,-102 338,-108 332,-108"/>
<text text-anchor="middle" x="287" y="-87.5" font-family="sans" font-size="10.00" fill="#000000">mixcr_exportClones</text>
</g>
<!-- 6&#45;&gt;0 -->
<g id="edge2" class="edge">
<title>6&#45;&gt;0</title>
<path fill="none" stroke="#c0c0c0" stroke-width="2" d="M260.2517,-71.8314C246.9447,-62.7927 230.684,-51.7476 216.3625,-42.0198"/>
<polygon fill="#c0c0c0" stroke="#c0c0c0" stroke-width="2" points="217.9785,-38.8864 207.7397,-36.1628 214.0453,-44.677 217.9785,-38.8864"/>
</g>
<!-- 7 -->
<g id="node8" class="node">
<title>7</title>
<path fill="none" stroke="#59d856" stroke-width="2" stroke-dasharray="5,2" d="M322.5,-180C322.5,-180 249.5,-180 249.5,-180 243.5,-180 237.5,-174 237.5,-168 237.5,-168 237.5,-156 237.5,-156 237.5,-150 243.5,-144 249.5,-144 249.5,-144 322.5,-144 322.5,-144 328.5,-144 334.5,-150 334.5,-156 334.5,-156 334.5,-168 334.5,-168 334.5,-174 328.5,-180 322.5,-180"/>
<text text-anchor="middle" x="286" y="-159.5" font-family="sans" font-size="10.00" fill="#000000">mixcr_assemble</text>
</g>
<!-- 7&#45;&gt;6 -->
<g id="edge10" class="edge">
<title>7&#45;&gt;6</title>
<path fill="none" stroke="#c0c0c0" stroke-width="2" d="M286.2523,-143.8314C286.3593,-136.131 286.4865,-126.9743 286.6053,-118.4166"/>
<polygon fill="#c0c0c0" stroke="#c0c0c0" stroke-width="2" points="290.1049,-118.4609 286.7443,-108.4133 283.1056,-118.3637 290.1049,-118.4609"/>
</g>
<!-- 8 -->
<g id="node9" class="node">
<title>8</title>
<path fill="none" stroke="#b6d856" stroke-width="2" stroke-dasharray="5,2" d="M304.5,-252C304.5,-252 245.5,-252 245.5,-252 239.5,-252 233.5,-246 233.5,-240 233.5,-240 233.5,-228 233.5,-228 233.5,-222 239.5,-216 245.5,-216 245.5,-216 304.5,-216 304.5,-216 310.5,-216 316.5,-222 316.5,-228 316.5,-228 316.5,-240 316.5,-240 316.5,-246 310.5,-252 304.5,-252"/>
<text text-anchor="middle" x="275" y="-231.5" font-family="sans" font-size="10.00" fill="#000000">mixcr_extend</text>
</g>
<!-- 8&#45;&gt;7 -->
<g id="edge11" class="edge">
<title>8&#45;&gt;7</title>
<path fill="none" stroke="#c0c0c0" stroke-width="2" d="M277.7758,-215.8314C278.9522,-208.131 280.3511,-198.9743 281.6586,-190.4166"/>
<polygon fill="#c0c0c0" stroke="#c0c0c0" stroke-width="2" points="285.1364,-190.8272 283.1869,-180.4133 278.2167,-189.7699 285.1364,-190.8272"/>
</g>
<!-- 9 -->
<g id="node10" class="node">
<title>9</title>
<path fill="none" stroke="#d8b456" stroke-width="2" stroke-dasharray="5,2" d="M326,-324C326,-324 222,-324 222,-324 216,-324 210,-318 210,-312 210,-312 210,-300 210,-300 210,-294 216,-288 222,-288 222,-288 326,-288 326,-288 332,-288 338,-294 338,-300 338,-300 338,-312 338,-312 338,-318 332,-324 326,-324"/>
<text text-anchor="middle" x="274" y="-303.5" font-family="sans" font-size="10.00" fill="#000000">mixcr_assemblePartial</text>
</g>
<!-- 9&#45;&gt;8 -->
<g id="edge12" class="edge">
<title>9&#45;&gt;8</title>
<path fill="none" stroke="#c0c0c0" stroke-width="2" d="M274.2523,-287.8314C274.3593,-280.131 274.4865,-270.9743 274.6053,-262.4166"/>
<polygon fill="#c0c0c0" stroke="#c0c0c0" stroke-width="2" points="278.1049,-262.4609 274.7443,-252.4133 271.1056,-262.3637 278.1049,-262.4609"/>
</g>
<!-- 10&#45;&gt;9 -->
<g id="edge13" class="edge">
<title>10&#45;&gt;9</title>
<path fill="none" stroke="#c0c0c0" stroke-width="2" d="M264.2804,-359.8314C265.6708,-352.131 267.3241,-342.9743 268.8692,-334.4166"/>
<polygon fill="#c0c0c0" stroke="#c0c0c0" stroke-width="2" points="272.3428,-334.8761 270.6754,-324.4133 265.4542,-333.6322 272.3428,-334.8761"/>
</g>
<!-- 11 -->
<g id="node12" class="node">
<title>11</title>
<path fill="none" stroke="#56d882" stroke-width="2" stroke-dasharray="5,2" d="M120,-108C120,-108 62,-108 62,-108 56,-108 50,-102 50,-96 50,-96 50,-84 50,-84 50,-78 56,-72 62,-72 62,-72 120,-72 120,-72 126,-72 132,-78 132,-84 132,-84 132,-96 132,-96 132,-102 126,-108 120,-108"/>
<text text-anchor="middle" x="91" y="-87.5" font-family="sans" font-size="10.00" fill="#000000">make_bigwig</text>
</g>
<!-- 11&#45;&gt;0 -->
<g id="edge3" class="edge">
<title>11&#45;&gt;0</title>
<path fill="none" stroke="#c0c0c0" stroke-width="2" d="M113.7108,-71.8314C124.796,-62.9632 138.2954,-52.1637 150.2852,-42.5718"/>
<polygon fill="#c0c0c0" stroke="#c0c0c0" stroke-width="2" points="152.6742,-45.1429 158.2965,-36.1628 148.3013,-39.6768 152.6742,-45.1429"/>
</g>
<!-- 12&#45;&gt;11 -->
<g id="edge15" class="edge">
<title>12&#45;&gt;11</title>
<path fill="none" stroke="#c0c0c0" stroke-width="2" d="M123.8969,-143.8314C118.9326,-135.7079 112.9778,-125.9637 107.5072,-117.0118"/>
<polygon fill="#c0c0c0" stroke="#c0c0c0" stroke-width="2" points="110.4536,-115.121 102.2526,-108.4133 104.4806,-118.7712 110.4536,-115.121"/>
</g>
<!-- 13 -->
<g id="node14" class="node">
<title>13</title>
<path fill="none" stroke="#70d856" stroke-width="2" stroke-dasharray="5,2" d="M199.5,-108C199.5,-108 162.5,-108 162.5,-108 156.5,-108 150.5,-102 150.5,-96 150.5,-96 150.5,-84 150.5,-84 150.5,-78 156.5,-72 162.5,-72 162.5,-72 199.5,-72 199.5,-72 205.5,-72 211.5,-78 211.5,-84 211.5,-84 211.5,-96 211.5,-96 211.5,-102 205.5,-108 199.5,-108"/>
<text text-anchor="middle" x="181" y="-87.5" font-family="sans" font-size="10.00" fill="#000000">TE_count</text>
</g>
<!-- 12&#45;&gt;13 -->
<g id="edge17" class="edge">
<title>12&#45;&gt;13</title>
<path fill="none" stroke="#c0c0c0" stroke-width="2" d="M146.6077,-143.8314C151.7978,-135.7079 158.0232,-125.9637 163.7425,-117.0118"/>
<polygon fill="#c0c0c0" stroke="#c0c0c0" stroke-width="2" points="166.8015,-118.7246 169.236,-108.4133 160.9026,-114.9559 166.8015,-118.7246"/>
</g>
<!-- 13&#45;&gt;0 -->
<g id="edge4" class="edge">
<title>13&#45;&gt;0</title>
<path fill="none" stroke="#c0c0c0" stroke-width="2" d="M181,-71.8314C181,-64.131 181,-54.9743 181,-46.4166"/>
<polygon fill="#c0c0c0" stroke="#c0c0c0" stroke-width="2" points="184.5001,-46.4132 181,-36.4133 177.5001,-46.4133 184.5001,-46.4132"/>
</g>
<!-- 14 -->
<g id="node15" class="node">
<title>14</title>
<path fill="none" stroke="#566bd8" stroke-width="2" stroke-dasharray="5,2" d="M445.5,-108C445.5,-108 374.5,-108 374.5,-108 368.5,-108 362.5,-102 362.5,-96 362.5,-96 362.5,-84 362.5,-84 362.5,-78 368.5,-72 374.5,-72 374.5,-72 445.5,-72 445.5,-72 451.5,-72 457.5,-78 457.5,-84 457.5,-84 457.5,-96 457.5,-96 457.5,-102 451.5,-108 445.5,-108"/>
<text text-anchor="middle" x="410" y="-93" font-family="sans" font-size="10.00" fill="#000000">FusionCatcher</text>
<text text-anchor="middle" x="410" y="-82" font-family="sans" font-size="10.00" fill="#000000">sample: GHIV17</text>
</g>
<!-- 14&#45;&gt;0 -->
<g id="edge5" class="edge">
<title>14&#45;&gt;0</title>
<path fill="none" stroke="#c0c0c0" stroke-width="2" d="M362.4161,-74.967C359.2297,-73.9623 356.0685,-72.9662 353,-72 306.4015,-57.3275 252.683,-40.4718 217.8513,-29.5501"/>
<polygon fill="#c0c0c0" stroke="#c0c0c0" stroke-width="2" points="218.7026,-26.149 208.1135,-26.497 216.6084,-32.8284 218.7026,-26.149"/>
</g>
</g>
</svg>
