<?xml version="1.0" encoding="UTF-8" standalone="no"?>
<!DOCTYPE svg PUBLIC "-//W3C//DTD SVG 1.1//EN"
 "http://www.w3.org/Graphics/SVG/1.1/DTD/svg11.dtd">
<!-- Generated by graphviz version 2.40.1 (20161225.0304)
 -->
<!-- Title: snakemake_dag Pages: 1 -->
<svg width="193pt" height="260pt"
 viewBox="0.00 0.00 193.00 260.00" xmlns="http://www.w3.org/2000/svg" xmlns:xlink="http://www.w3.org/1999/xlink">
<g id="graph0" class="graph" transform="scale(1 1) rotate(0) translate(4 256)">
<title>snakemake_dag</title>
<polygon fill="#ffffff" stroke="transparent" points="-4,4 -4,-256 189,-256 189,4 -4,4"/>
<!-- 0 -->
<g id="node1" class="node">
<title>0</title>
<path fill="none" stroke="#59d856" stroke-width="2" stroke-dasharray="5,2" d="M107.5,-36C107.5,-36 77.5,-36 77.5,-36 71.5,-36 65.5,-30 65.5,-24 65.5,-24 65.5,-12 65.5,-12 65.5,-6 71.5,0 77.5,0 77.5,0 107.5,0 107.5,0 113.5,0 119.5,-6 119.5,-12 119.5,-12 119.5,-24 119.5,-24 119.5,-30 113.5,-36 107.5,-36"/>
<text text-anchor="middle" x="92.5" y="-15.5" font-family="sans" font-size="10.00" fill="#000000">all</text>
</g>
<!-- 1 -->
<g id="node2" class="node">
<title>1</title>
<path fill="none" stroke="#56d8d8" stroke-width="2" stroke-dasharray="5,2" d="M144.5,-108C144.5,-108 40.5,-108 40.5,-108 34.5,-108 28.5,-102 28.5,-96 28.5,-96 28.5,-84 28.5,-84 28.5,-78 34.5,-72 40.5,-72 40.5,-72 144.5,-72 144.5,-72 150.5,-72 156.5,-78 156.5,-84 156.5,-84 156.5,-96 156.5,-96 156.5,-102 150.5,-108 144.5,-108"/>
<text text-anchor="middle" x="92.5" y="-87.5" font-family="sans" font-size="10.00" fill="#000000">bismark_methyextract</text>
</g>
<!-- 1&#45;&gt;0 -->
<g id="edge1" class="edge">
<title>1&#45;&gt;0</title>
<path fill="none" stroke="#c0c0c0" stroke-width="2" d="M92.5,-71.8314C92.5,-64.131 92.5,-54.9743 92.5,-46.4166"/>
<polygon fill="#c0c0c0" stroke="#c0c0c0" stroke-width="2" points="96.0001,-46.4132 92.5,-36.4133 89.0001,-46.4133 96.0001,-46.4132"/>
</g>
<!-- 2 -->
<g id="node3" class="node">
<title>2</title>
<path fill="none" stroke="#d85656" stroke-width="2" stroke-dasharray="5,2" d="M108.5,-180C108.5,-180 76.5,-180 76.5,-180 70.5,-180 64.5,-174 64.5,-168 64.5,-168 64.5,-156 64.5,-156 64.5,-150 70.5,-144 76.5,-144 76.5,-144 108.5,-144 108.5,-144 114.5,-144 120.5,-150 120.5,-156 120.5,-156 120.5,-168 120.5,-168 120.5,-174 114.5,-180 108.5,-180"/>
<text text-anchor="middle" x="92.5" y="-159.5" font-family="sans" font-size="10.00" fill="#000000">bismark</text>
</g>
<!-- 2&#45;&gt;1 -->
<g id="edge2" class="edge">
<title>2&#45;&gt;1</title>
<path fill="none" stroke="#c0c0c0" stroke-width="2" d="M92.5,-143.8314C92.5,-136.131 92.5,-126.9743 92.5,-118.4166"/>
<polygon fill="#c0c0c0" stroke="#c0c0c0" stroke-width="2" points="96.0001,-118.4132 92.5,-108.4133 89.0001,-118.4133 96.0001,-118.4132"/>
</g>
<!-- 3 -->
<g id="node4" class="node">
<title>3</title>
<path fill="none" stroke="#d6d856" stroke-width="2" stroke-dasharray="5,2" d="M173,-252C173,-252 12,-252 12,-252 6,-252 0,-246 0,-240 0,-240 0,-228 0,-228 0,-222 6,-216 12,-216 12,-216 173,-216 173,-216 179,-216 185,-222 185,-228 185,-228 185,-240 185,-240 185,-246 179,-252 173,-252"/>
<text text-anchor="middle" x="92.5" y="-237" font-family="sans" font-size="10.00" fill="#000000">trimgalore</text>
<text text-anchor="middle" x="92.5" y="-226" font-family="sans" font-size="10.00" fill="#000000">bamTmp: COH000337_M40D40WT</text>
</g>
<!-- 3&#45;&gt;2 -->
<g id="edge3" class="edge">
<title>3&#45;&gt;2</title>
<path fill="none" stroke="#c0c0c0" stroke-width="2" d="M92.5,-215.8314C92.5,-208.131 92.5,-198.9743 92.5,-190.4166"/>
<polygon fill="#c0c0c0" stroke="#c0c0c0" stroke-width="2" points="96.0001,-190.4132 92.5,-180.4133 89.0001,-190.4133 96.0001,-190.4132"/>
</g>
</g>
</svg>
