<?xml version="1.0" encoding="UTF-8" standalone="no"?>
<!DOCTYPE svg PUBLIC "-//W3C//DTD SVG 1.1//EN"
 "http://www.w3.org/Graphics/SVG/1.1/DTD/svg11.dtd">
<!-- Generated by graphviz version 2.40.1 (20161225.0304)
 -->
<!-- Title: snakemake_dag Pages: 1 -->
<svg width="386pt" height="1700pt"
 viewBox="0.00 0.00 386.00 1700.00" xmlns="http://www.w3.org/2000/svg" xmlns:xlink="http://www.w3.org/1999/xlink">
<g id="graph0" class="graph" transform="scale(1 1) rotate(0) translate(4 1696)">
<title>snakemake_dag</title>
<polygon fill="#ffffff" stroke="transparent" points="-4,4 -4,-1696 382,-1696 382,4 -4,4"/>
<!-- 0 -->
<g id="node1" class="node">
<title>0</title>
<path fill="none" stroke="#59d856" stroke-width="2" stroke-dasharray="5,2" d="M54.5,-36C54.5,-36 17.5,-36 17.5,-36 11.5,-36 5.5,-30 5.5,-24 5.5,-24 5.5,-12 5.5,-12 5.5,-6 11.5,0 17.5,0 17.5,0 54.5,0 54.5,0 60.5,0 66.5,-6 66.5,-12 66.5,-12 66.5,-24 66.5,-24 66.5,-30 60.5,-36 54.5,-36"/>
<text text-anchor="middle" x="36" y="-15.5" font-family="sans" font-size="10.00" fill="#000000">microsec</text>
</g>
<!-- 1 -->
<g id="node2" class="node">
<title>1</title>
<path fill="none" stroke="#5663d8" stroke-width="2" stroke-dasharray="5,2" d="M121.5,-108C121.5,-108 56.5,-108 56.5,-108 50.5,-108 44.5,-102 44.5,-96 44.5,-96 44.5,-84 44.5,-84 44.5,-78 50.5,-72 56.5,-72 56.5,-72 121.5,-72 121.5,-72 127.5,-72 133.5,-78 133.5,-84 133.5,-84 133.5,-96 133.5,-96 133.5,-102 127.5,-108 121.5,-108"/>
<text text-anchor="middle" x="89" y="-87.5" font-family="sans" font-size="10.00" fill="#000000">search_cosmic</text>
</g>
<!-- 1&#45;&gt;0 -->
<g id="edge1" class="edge">
<title>1&#45;&gt;0</title>
<path fill="none" stroke="#c0c0c0" stroke-width="2" d="M75.6259,-71.8314C69.5838,-63.6232 62.3237,-53.7606 55.6779,-44.7323"/>
<polygon fill="#c0c0c0" stroke="#c0c0c0" stroke-width="2" points="58.3011,-42.3918 49.5542,-36.4133 52.6637,-46.5415 58.3011,-42.3918"/>
</g>
<!-- 2 -->
<g id="node3" class="node">
<title>2</title>
<path fill="none" stroke="#56d8b1" stroke-width="2" stroke-dasharray="5,2" d="M123,-180C123,-180 71,-180 71,-180 65,-180 59,-174 59,-168 59,-168 59,-156 59,-156 59,-150 65,-144 71,-144 71,-144 123,-144 123,-144 129,-144 135,-150 135,-156 135,-156 135,-168 135,-168 135,-174 129,-180 123,-180"/>
<text text-anchor="middle" x="97" y="-159.5" font-family="sans" font-size="10.00" fill="#000000">filter_dbSNP</text>
</g>
<!-- 2&#45;&gt;1 -->
<g id="edge3" class="edge">
<title>2&#45;&gt;1</title>
<path fill="none" stroke="#c0c0c0" stroke-width="2" d="M94.9813,-143.8314C94.1257,-136.131 93.1083,-126.9743 92.1574,-118.4166"/>
<polygon fill="#c0c0c0" stroke="#c0c0c0" stroke-width="2" points="95.6289,-117.9656 91.0459,-108.4133 88.6717,-118.7386 95.6289,-117.9656"/>
</g>
<!-- 3 -->
<g id="node4" class="node">
<title>3</title>
<path fill="none" stroke="#56d88a" stroke-width="2" stroke-dasharray="5,2" d="M171.5,-252C171.5,-252 40.5,-252 40.5,-252 34.5,-252 28.5,-246 28.5,-240 28.5,-240 28.5,-228 28.5,-228 28.5,-222 34.5,-216 40.5,-216 40.5,-216 171.5,-216 171.5,-216 177.5,-216 183.5,-222 183.5,-228 183.5,-228 183.5,-240 183.5,-240 183.5,-246 177.5,-252 171.5,-252"/>
<text text-anchor="middle" x="106" y="-231.5" font-family="sans" font-size="10.00" fill="#000000">perl_filter_Mutect2noNormal</text>
</g>
<!-- 3&#45;&gt;2 -->
<g id="edge4" class="edge">
<title>3&#45;&gt;2</title>
<path fill="none" stroke="#c0c0c0" stroke-width="2" d="M103.7289,-215.8314C102.7664,-208.131 101.6218,-198.9743 100.5521,-190.4166"/>
<polygon fill="#c0c0c0" stroke="#c0c0c0" stroke-width="2" points="104.0151,-189.9019 99.3017,-180.4133 97.0691,-190.7702 104.0151,-189.9019"/>
</g>
<!-- 4 -->
<g id="node5" class="node">
<title>4</title>
<path fill="none" stroke="#afd856" stroke-width="2" stroke-dasharray="5,2" d="M134,-324C134,-324 78,-324 78,-324 72,-324 66,-318 66,-312 66,-312 66,-300 66,-300 66,-294 72,-288 78,-288 78,-288 134,-288 134,-288 140,-288 146,-294 146,-300 146,-300 146,-312 146,-312 146,-318 140,-324 134,-324"/>
<text text-anchor="middle" x="106" y="-303.5" font-family="sans" font-size="10.00" fill="#000000">artifact_filter</text>
</g>
<!-- 4&#45;&gt;3 -->
<g id="edge5" class="edge">
<title>4&#45;&gt;3</title>
<path fill="none" stroke="#c0c0c0" stroke-width="2" d="M106,-287.8314C106,-280.131 106,-270.9743 106,-262.4166"/>
<polygon fill="#c0c0c0" stroke="#c0c0c0" stroke-width="2" points="109.5001,-262.4132 106,-252.4133 102.5001,-262.4133 109.5001,-262.4132"/>
</g>
<!-- 5 -->
<g id="node6" class="node">
<title>5</title>
<path fill="none" stroke="#d86656" stroke-width="2" stroke-dasharray="5,2" d="M133.5,-396C133.5,-396 78.5,-396 78.5,-396 72.5,-396 66.5,-390 66.5,-384 66.5,-384 66.5,-372 66.5,-372 66.5,-366 72.5,-360 78.5,-360 78.5,-360 133.5,-360 133.5,-360 139.5,-360 145.5,-366 145.5,-372 145.5,-372 145.5,-384 145.5,-384 145.5,-390 139.5,-396 133.5,-396"/>
<text text-anchor="middle" x="106" y="-375.5" font-family="sans" font-size="10.00" fill="#000000">SOBDetector</text>
</g>
<!-- 5&#45;&gt;4 -->
<g id="edge6" class="edge">
<title>5&#45;&gt;4</title>
<path fill="none" stroke="#c0c0c0" stroke-width="2" d="M106,-359.8314C106,-352.131 106,-342.9743 106,-334.4166"/>
<polygon fill="#c0c0c0" stroke="#c0c0c0" stroke-width="2" points="109.5001,-334.4132 106,-324.4133 102.5001,-334.4133 109.5001,-334.4132"/>
</g>
<!-- 6 -->
<g id="node7" class="node">
<title>6</title>
<path fill="none" stroke="#d88556" stroke-width="2" stroke-dasharray="5,2" d="M136,-468C136,-468 78,-468 78,-468 72,-468 66,-462 66,-456 66,-456 66,-444 66,-444 66,-438 72,-432 78,-432 78,-432 136,-432 136,-432 142,-432 148,-438 148,-444 148,-444 148,-456 148,-456 148,-462 142,-468 136,-468"/>
<text text-anchor="middle" x="107" y="-447.5" font-family="sans" font-size="10.00" fill="#000000">variantotable</text>
</g>
<!-- 6&#45;&gt;5 -->
<g id="edge7" class="edge">
<title>6&#45;&gt;5</title>
<path fill="none" stroke="#c0c0c0" stroke-width="2" d="M106.7477,-431.8314C106.6407,-424.131 106.5135,-414.9743 106.3947,-406.4166"/>
<polygon fill="#c0c0c0" stroke="#c0c0c0" stroke-width="2" points="109.8944,-406.3637 106.2557,-396.4133 102.8951,-406.4609 109.8944,-406.3637"/>
</g>
<!-- 7 -->
<g id="node8" class="node">
<title>7</title>
<path fill="none" stroke="#a7d856" stroke-width="2" stroke-dasharray="5,2" d="M123,-540C123,-540 93,-540 93,-540 87,-540 81,-534 81,-528 81,-528 81,-516 81,-516 81,-510 87,-504 93,-504 93,-504 123,-504 123,-504 129,-504 135,-510 135,-516 135,-516 135,-528 135,-528 135,-534 129,-540 123,-540"/>
<text text-anchor="middle" x="108" y="-519.5" font-family="sans" font-size="10.00" fill="#000000">vep</text>
</g>
<!-- 7&#45;&gt;6 -->
<g id="edge9" class="edge">
<title>7&#45;&gt;6</title>
<path fill="none" stroke="#c0c0c0" stroke-width="2" d="M107.7477,-503.8314C107.6407,-496.131 107.5135,-486.9743 107.3947,-478.4166"/>
<polygon fill="#c0c0c0" stroke="#c0c0c0" stroke-width="2" points="110.8944,-478.3637 107.2557,-468.4133 103.8951,-478.4609 110.8944,-478.3637"/>
</g>
<!-- 8 -->
<g id="node9" class="node">
<title>8</title>
<path fill="none" stroke="#bed856" stroke-width="2" stroke-dasharray="5,2" d="M130,-612C130,-612 86,-612 86,-612 80,-612 74,-606 74,-600 74,-600 74,-588 74,-588 74,-582 80,-576 86,-576 86,-576 130,-576 130,-576 136,-576 142,-582 142,-588 142,-588 142,-600 142,-600 142,-606 136,-612 130,-612"/>
<text text-anchor="middle" x="108" y="-591.5" font-family="sans" font-size="10.00" fill="#000000">Funcotator</text>
</g>
<!-- 8&#45;&gt;7 -->
<g id="edge10" class="edge">
<title>8&#45;&gt;7</title>
<path fill="none" stroke="#c0c0c0" stroke-width="2" d="M108,-575.8314C108,-568.131 108,-558.9743 108,-550.4166"/>
<polygon fill="#c0c0c0" stroke="#c0c0c0" stroke-width="2" points="111.5001,-550.4132 108,-540.4133 104.5001,-550.4133 111.5001,-550.4132"/>
</g>
<!-- 9 -->
<g id="node10" class="node">
<title>9</title>
<path fill="none" stroke="#56d86b" stroke-width="2" stroke-dasharray="5,2" d="M128,-684C128,-684 90,-684 90,-684 84,-684 78,-678 78,-672 78,-672 78,-660 78,-660 78,-654 84,-648 90,-648 90,-648 128,-648 128,-648 134,-648 140,-654 140,-660 140,-660 140,-672 140,-672 140,-678 134,-684 128,-684"/>
<text text-anchor="middle" x="109" y="-663.5" font-family="sans" font-size="10.00" fill="#000000">filterpass</text>
</g>
<!-- 9&#45;&gt;8 -->
<g id="edge11" class="edge">
<title>9&#45;&gt;8</title>
<path fill="none" stroke="#c0c0c0" stroke-width="2" d="M108.7477,-647.8314C108.6407,-640.131 108.5135,-630.9743 108.3947,-622.4166"/>
<polygon fill="#c0c0c0" stroke="#c0c0c0" stroke-width="2" points="111.8944,-622.3637 108.2557,-612.4133 104.8951,-622.4609 111.8944,-622.3637"/>
</g>
<!-- 10 -->
<g id="node11" class="node">
<title>10</title>
<path fill="none" stroke="#d8c356" stroke-width="2" stroke-dasharray="5,2" d="M134.5,-756C134.5,-756 83.5,-756 83.5,-756 77.5,-756 71.5,-750 71.5,-744 71.5,-744 71.5,-732 71.5,-732 71.5,-726 77.5,-720 83.5,-720 83.5,-720 134.5,-720 134.5,-720 140.5,-720 146.5,-726 146.5,-732 146.5,-732 146.5,-744 146.5,-744 146.5,-750 140.5,-756 134.5,-756"/>
<text text-anchor="middle" x="109" y="-735.5" font-family="sans" font-size="10.00" fill="#000000">strand_filter</text>
</g>
<!-- 10&#45;&gt;9 -->
<g id="edge12" class="edge">
<title>10&#45;&gt;9</title>
<path fill="none" stroke="#c0c0c0" stroke-width="2" d="M109,-719.8314C109,-712.131 109,-702.9743 109,-694.4166"/>
<polygon fill="#c0c0c0" stroke="#c0c0c0" stroke-width="2" points="112.5001,-694.4132 109,-684.4133 105.5001,-694.4133 112.5001,-694.4132"/>
</g>
<!-- 11 -->
<g id="node12" class="node">
<title>11</title>
<path fill="none" stroke="#56a9d8" stroke-width="2" stroke-dasharray="5,2" d="M140,-828C140,-828 80,-828 80,-828 74,-828 68,-822 68,-816 68,-816 68,-804 68,-804 68,-798 74,-792 80,-792 80,-792 140,-792 140,-792 146,-792 152,-798 152,-804 152,-804 152,-816 152,-816 152,-822 146,-828 140,-828"/>
<text text-anchor="middle" x="110" y="-807.5" font-family="sans" font-size="10.00" fill="#000000">filtersuperdup</text>
</g>
<!-- 11&#45;&gt;10 -->
<g id="edge13" class="edge">
<title>11&#45;&gt;10</title>
<path fill="none" stroke="#c0c0c0" stroke-width="2" d="M109.7477,-791.8314C109.6407,-784.131 109.5135,-774.9743 109.3947,-766.4166"/>
<polygon fill="#c0c0c0" stroke="#c0c0c0" stroke-width="2" points="112.8944,-766.3637 109.2557,-756.4133 105.8951,-766.4609 112.8944,-766.3637"/>
</g>
<!-- 12 -->
<g id="node13" class="node">
<title>12</title>
<path fill="none" stroke="#56d0d8" stroke-width="2" stroke-dasharray="5,2" d="M172,-900C172,-900 104,-900 104,-900 98,-900 92,-894 92,-888 92,-888 92,-876 92,-876 92,-870 98,-864 104,-864 104,-864 172,-864 172,-864 178,-864 184,-870 184,-876 184,-876 184,-888 184,-888 184,-894 178,-900 172,-900"/>
<text text-anchor="middle" x="138" y="-879.5" font-family="sans" font-size="10.00" fill="#000000">Filtermutectcall</text>
</g>
<!-- 12&#45;&gt;11 -->
<g id="edge14" class="edge">
<title>12&#45;&gt;11</title>
<path fill="none" stroke="#c0c0c0" stroke-width="2" d="M130.9344,-863.8314C127.874,-855.9617 124.2221,-846.5712 120.8318,-837.8533"/>
<polygon fill="#c0c0c0" stroke="#c0c0c0" stroke-width="2" points="124.0473,-836.4647 117.1607,-828.4133 117.5232,-839.0019 124.0473,-836.4647"/>
</g>
<!-- 13 -->
<g id="node14" class="node">
<title>13</title>
<path fill="none" stroke="#568ad8" stroke-width="2" stroke-dasharray="5,2" d="M202.5,-1044C202.5,-1044 77.5,-1044 77.5,-1044 71.5,-1044 65.5,-1038 65.5,-1032 65.5,-1032 65.5,-1020 65.5,-1020 65.5,-1014 71.5,-1008 77.5,-1008 77.5,-1008 202.5,-1008 202.5,-1008 208.5,-1008 214.5,-1014 214.5,-1020 214.5,-1020 214.5,-1032 214.5,-1032 214.5,-1038 208.5,-1044 202.5,-1044"/>
<text text-anchor="middle" x="140" y="-1023.5" font-family="sans" font-size="10.00" fill="#000000">Mutect2_tumor_only_mode</text>
</g>
<!-- 13&#45;&gt;12 -->
<g id="edge15" class="edge">
<title>13&#45;&gt;12</title>
<path fill="none" stroke="#c0c0c0" stroke-width="2" d="M119.1422,-1007.6461C109.846,-998.0709 99.9022,-985.54 95,-972 89.5532,-956.9557 89.721,-951.104 95,-936 98.5957,-925.7121 105.0628,-915.9193 111.9076,-907.568"/>
<polygon fill="#c0c0c0" stroke="#c0c0c0" stroke-width="2" points="114.5502,-909.863 118.5044,-900.0337 109.2836,-905.2517 114.5502,-909.863"/>
</g>
<!-- 25 -->
<g id="node26" class="node">
<title>25</title>
<path fill="none" stroke="#c6d856" stroke-width="2" stroke-dasharray="5,2" d="M214,-972C214,-972 116,-972 116,-972 110,-972 104,-966 104,-960 104,-960 104,-948 104,-948 104,-942 110,-936 116,-936 116,-936 214,-936 214,-936 220,-936 226,-942 226,-948 226,-948 226,-960 226,-960 226,-966 220,-972 214,-972"/>
<text text-anchor="middle" x="165" y="-951.5" font-family="sans" font-size="10.00" fill="#000000">LearnReadOrientation</text>
</g>
<!-- 13&#45;&gt;25 -->
<g id="edge31" class="edge">
<title>13&#45;&gt;25</title>
<path fill="none" stroke="#c0c0c0" stroke-width="2" d="M146.3086,-1007.8314C149.0117,-1000.0463 152.2316,-990.7729 155.231,-982.1347"/>
<polygon fill="#c0c0c0" stroke="#c0c0c0" stroke-width="2" points="158.6327,-983.0081 158.6065,-972.4133 152.02,-980.7119 158.6327,-983.0081"/>
</g>
<!-- 14 -->
<g id="node15" class="node">
<title>14</title>
<path fill="none" stroke="#78d856" stroke-width="2" stroke-dasharray="5,2" d="M121.5,-1116C121.5,-1116 56.5,-1116 56.5,-1116 50.5,-1116 44.5,-1110 44.5,-1104 44.5,-1104 44.5,-1092 44.5,-1092 44.5,-1086 50.5,-1080 56.5,-1080 56.5,-1080 121.5,-1080 121.5,-1080 127.5,-1080 133.5,-1086 133.5,-1092 133.5,-1092 133.5,-1104 133.5,-1104 133.5,-1110 127.5,-1116 121.5,-1116"/>
<text text-anchor="middle" x="89" y="-1095.5" font-family="sans" font-size="10.00" fill="#000000">LeftAlignIndels</text>
</g>
<!-- 14&#45;&gt;0 -->
<g id="edge2" class="edge">
<title>14&#45;&gt;0</title>
<path fill="none" stroke="#c0c0c0" stroke-width="2" d="M68.3579,-1079.7555C42.0664,-1054.391 0,-1005.7256 0,-954 0,-954 0,-954 0,-162 0,-120.5072 14.2416,-74.2433 24.8098,-45.6245"/>
<polygon fill="#c0c0c0" stroke="#c0c0c0" stroke-width="2" points="28.0824,-46.8654 28.3653,-36.2743 21.5395,-44.3773 28.0824,-46.8654"/>
</g>
<!-- 14&#45;&gt;5 -->
<g id="edge8" class="edge">
<title>14&#45;&gt;5</title>
<path fill="none" stroke="#c0c0c0" stroke-width="2" d="M75.6864,-1079.8542C68.8619,-1069.7531 60.9643,-1056.6872 56,-1044 41.1359,-1006.0124 38,-994.7922 38,-954 38,-954 38,-954 38,-522 38,-481.1184 38.3951,-468.4029 57,-432 62.2931,-421.6434 70.0981,-411.7654 77.9303,-403.3563"/>
<polygon fill="#c0c0c0" stroke="#c0c0c0" stroke-width="2" points="80.5643,-405.6689 85.0595,-396.075 75.5626,-400.7716 80.5643,-405.6689"/>
</g>
<!-- 14&#45;&gt;13 -->
<g id="edge18" class="edge">
<title>14&#45;&gt;13</title>
<path fill="none" stroke="#c0c0c0" stroke-width="2" d="M101.8695,-1079.8314C107.6835,-1071.6232 114.6696,-1061.7606 121.0646,-1052.7323"/>
<polygon fill="#c0c0c0" stroke="#c0c0c0" stroke-width="2" points="124.0331,-1054.5966 126.9573,-1044.4133 118.321,-1050.5505 124.0331,-1054.5966"/>
</g>
<!-- 24 -->
<g id="node25" class="node">
<title>24</title>
<path fill="none" stroke="#8fd856" stroke-width="2" stroke-dasharray="5,2" d="M307,-1044C307,-1044 267,-1044 267,-1044 261,-1044 255,-1038 255,-1032 255,-1032 255,-1020 255,-1020 255,-1014 261,-1008 267,-1008 267,-1008 307,-1008 307,-1008 313,-1008 319,-1014 319,-1020 319,-1020 319,-1032 319,-1032 319,-1038 313,-1044 307,-1044"/>
<text text-anchor="middle" x="287" y="-1023.5" font-family="sans" font-size="10.00" fill="#000000">Getpileup</text>
</g>
<!-- 14&#45;&gt;24 -->
<g id="edge30" class="edge">
<title>14&#45;&gt;24</title>
<path fill="none" stroke="#c0c0c0" stroke-width="2" d="M133.9293,-1081.6621C167.328,-1069.5171 212.5701,-1053.0654 245.1969,-1041.2011"/>
<polygon fill="#c0c0c0" stroke="#c0c0c0" stroke-width="2" points="246.6885,-1044.383 254.8903,-1037.6762 244.2963,-1037.8045 246.6885,-1044.383"/>
</g>
<!-- 15 -->
<g id="node16" class="node">
<title>15</title>
<path fill="none" stroke="#56d8c1" stroke-width="2" stroke-dasharray="5,2" d="M112.5,-1188C112.5,-1188 65.5,-1188 65.5,-1188 59.5,-1188 53.5,-1182 53.5,-1176 53.5,-1176 53.5,-1164 53.5,-1164 53.5,-1158 59.5,-1152 65.5,-1152 65.5,-1152 112.5,-1152 112.5,-1152 118.5,-1152 124.5,-1158 124.5,-1164 124.5,-1164 124.5,-1176 124.5,-1176 124.5,-1182 118.5,-1188 112.5,-1188"/>
<text text-anchor="middle" x="89" y="-1167.5" font-family="sans" font-size="10.00" fill="#000000">ApplyBQSR</text>
</g>
<!-- 15&#45;&gt;14 -->
<g id="edge19" class="edge">
<title>15&#45;&gt;14</title>
<path fill="none" stroke="#c0c0c0" stroke-width="2" d="M89,-1151.8314C89,-1144.131 89,-1134.9743 89,-1126.4166"/>
<polygon fill="#c0c0c0" stroke="#c0c0c0" stroke-width="2" points="92.5001,-1126.4132 89,-1116.4133 85.5001,-1126.4133 92.5001,-1126.4132"/>
</g>
<!-- 16 -->
<g id="node17" class="node">
<title>16</title>
<path fill="none" stroke="#56d85b" stroke-width="2" stroke-dasharray="5,2" d="M120,-1332C120,-1332 58,-1332 58,-1332 52,-1332 46,-1326 46,-1320 46,-1320 46,-1308 46,-1308 46,-1302 52,-1296 58,-1296 58,-1296 120,-1296 120,-1296 126,-1296 132,-1302 132,-1308 132,-1308 132,-1320 132,-1320 132,-1326 126,-1332 120,-1332"/>
<text text-anchor="middle" x="89" y="-1311.5" font-family="sans" font-size="10.00" fill="#000000">IndelRealigner</text>
</g>
<!-- 16&#45;&gt;15 -->
<g id="edge20" class="edge">
<title>16&#45;&gt;15</title>
<path fill="none" stroke="#c0c0c0" stroke-width="2" d="M80.9083,-1295.9165C76.7439,-1285.6179 72.1082,-1272.3436 70,-1260 67.3063,-1244.2284 67.3063,-1239.7716 70,-1224 71.4988,-1215.2245 74.2751,-1205.9785 77.2513,-1197.6659"/>
<polygon fill="#c0c0c0" stroke="#c0c0c0" stroke-width="2" points="80.6126,-1198.6742 80.9083,-1188.0835 74.0727,-1196.1782 80.6126,-1198.6742"/>
</g>
<!-- 22 -->
<g id="node23" class="node">
<title>22</title>
<path fill="none" stroke="#566bd8" stroke-width="2" stroke-dasharray="5,2" d="M162.5,-1260C162.5,-1260 91.5,-1260 91.5,-1260 85.5,-1260 79.5,-1254 79.5,-1248 79.5,-1248 79.5,-1236 79.5,-1236 79.5,-1230 85.5,-1224 91.5,-1224 91.5,-1224 162.5,-1224 162.5,-1224 168.5,-1224 174.5,-1230 174.5,-1236 174.5,-1236 174.5,-1248 174.5,-1248 174.5,-1254 168.5,-1260 162.5,-1260"/>
<text text-anchor="middle" x="127" y="-1239.5" font-family="sans" font-size="10.00" fill="#000000">BaseRecalibrate</text>
</g>
<!-- 16&#45;&gt;22 -->
<g id="edge28" class="edge">
<title>16&#45;&gt;22</title>
<path fill="none" stroke="#c0c0c0" stroke-width="2" d="M98.589,-1295.8314C102.8317,-1287.7925 107.9121,-1278.1666 112.596,-1269.2918"/>
<polygon fill="#c0c0c0" stroke="#c0c0c0" stroke-width="2" points="115.7096,-1270.8908 117.2819,-1260.4133 109.5189,-1267.6235 115.7096,-1270.8908"/>
</g>
<!-- 17 -->
<g id="node18" class="node">
<title>17</title>
<path fill="none" stroke="#56a2d8" stroke-width="2" stroke-dasharray="5,2" d="M107,-1476C107,-1476 71,-1476 71,-1476 65,-1476 59,-1470 59,-1464 59,-1464 59,-1452 59,-1452 59,-1446 65,-1440 71,-1440 71,-1440 107,-1440 107,-1440 113,-1440 119,-1446 119,-1452 119,-1452 119,-1464 119,-1464 119,-1470 113,-1476 107,-1476"/>
<text text-anchor="middle" x="89" y="-1455.5" font-family="sans" font-size="10.00" fill="#000000">MarkDup</text>
</g>
<!-- 17&#45;&gt;16 -->
<g id="edge22" class="edge">
<title>17&#45;&gt;16</title>
<path fill="none" stroke="#c0c0c0" stroke-width="2" d="M77.2492,-1439.8241C71.4142,-1429.7142 64.9861,-1416.6495 62,-1404 58.324,-1388.428 58.324,-1383.572 62,-1368 64.1696,-1358.8094 68.1562,-1349.3995 72.4121,-1341.0631"/>
<polygon fill="#c0c0c0" stroke="#c0c0c0" stroke-width="2" points="75.5427,-1342.6324 77.2492,-1332.1759 69.3944,-1339.286 75.5427,-1342.6324"/>
</g>
<!-- 21 -->
<g id="node22" class="node">
<title>21</title>
<path fill="none" stroke="#567bd8" stroke-width="2" stroke-dasharray="5,2" d="M187,-1404C187,-1404 83,-1404 83,-1404 77,-1404 71,-1398 71,-1392 71,-1392 71,-1380 71,-1380 71,-1374 77,-1368 83,-1368 83,-1368 187,-1368 187,-1368 193,-1368 199,-1374 199,-1380 199,-1380 199,-1392 199,-1392 199,-1398 193,-1404 187,-1404"/>
<text text-anchor="middle" x="135" y="-1383.5" font-family="sans" font-size="10.00" fill="#000000">RealignerTargetCreator</text>
</g>
<!-- 17&#45;&gt;21 -->
<g id="edge27" class="edge">
<title>17&#45;&gt;21</title>
<path fill="none" stroke="#c0c0c0" stroke-width="2" d="M100.6077,-1439.8314C105.7978,-1431.7079 112.0232,-1421.9637 117.7425,-1413.0118"/>
<polygon fill="#c0c0c0" stroke="#c0c0c0" stroke-width="2" points="120.8015,-1414.7246 123.236,-1404.4133 114.9026,-1410.9559 120.8015,-1414.7246"/>
</g>
<!-- 18 -->
<g id="node19" class="node">
<title>18</title>
<path fill="none" stroke="#56d882" stroke-width="2" stroke-dasharray="5,2" d="M120,-1548C120,-1548 58,-1548 58,-1548 52,-1548 46,-1542 46,-1536 46,-1536 46,-1524 46,-1524 46,-1518 52,-1512 58,-1512 58,-1512 120,-1512 120,-1512 126,-1512 132,-1518 132,-1524 132,-1524 132,-1536 132,-1536 132,-1542 126,-1548 120,-1548"/>
<text text-anchor="middle" x="89" y="-1527.5" font-family="sans" font-size="10.00" fill="#000000">samtools_sort</text>
</g>
<!-- 18&#45;&gt;17 -->
<g id="edge24" class="edge">
<title>18&#45;&gt;17</title>
<path fill="none" stroke="#c0c0c0" stroke-width="2" d="M89,-1511.8314C89,-1504.131 89,-1494.9743 89,-1486.4166"/>
<polygon fill="#c0c0c0" stroke="#c0c0c0" stroke-width="2" points="92.5001,-1486.4132 89,-1476.4133 85.5001,-1486.4133 92.5001,-1486.4132"/>
</g>
<!-- 19 -->
<g id="node20" class="node">
<title>19</title>
<path fill="none" stroke="#56d873" stroke-width="2" stroke-dasharray="5,2" d="M145,-1620C145,-1620 33,-1620 33,-1620 27,-1620 21,-1614 21,-1608 21,-1608 21,-1596 21,-1596 21,-1590 27,-1584 33,-1584 33,-1584 145,-1584 145,-1584 151,-1584 157,-1590 157,-1596 157,-1596 157,-1608 157,-1608 157,-1614 151,-1620 145,-1620"/>
<text text-anchor="middle" x="89" y="-1605" font-family="sans" font-size="10.00" fill="#000000">samtools_merge</text>
<text text-anchor="middle" x="89" y="-1594" font-family="sans" font-size="10.00" fill="#000000">sample: 53310_P500237</text>
</g>
<!-- 19&#45;&gt;18 -->
<g id="edge25" class="edge">
<title>19&#45;&gt;18</title>
<path fill="none" stroke="#c0c0c0" stroke-width="2" d="M89,-1583.8314C89,-1576.131 89,-1566.9743 89,-1558.4166"/>
<polygon fill="#c0c0c0" stroke="#c0c0c0" stroke-width="2" points="92.5001,-1558.4132 89,-1548.4133 85.5001,-1558.4133 92.5001,-1558.4132"/>
</g>
<!-- 20 -->
<g id="node21" class="node">
<title>20</title>
<path fill="none" stroke="#97d856" stroke-width="2" stroke-dasharray="5,2" d="M148.5,-1692C148.5,-1692 29.5,-1692 29.5,-1692 23.5,-1692 17.5,-1686 17.5,-1680 17.5,-1680 17.5,-1668 17.5,-1668 17.5,-1662 23.5,-1656 29.5,-1656 29.5,-1656 148.5,-1656 148.5,-1656 154.5,-1656 160.5,-1662 160.5,-1668 160.5,-1668 160.5,-1680 160.5,-1680 160.5,-1686 154.5,-1692 148.5,-1692"/>
<text text-anchor="middle" x="89" y="-1677" font-family="sans" font-size="10.00" fill="#000000">bwa</text>
<text text-anchor="middle" x="89" y="-1666" font-family="sans" font-size="10.00" fill="#000000">bamTmp: 53310_P500237</text>
</g>
<!-- 20&#45;&gt;19 -->
<g id="edge26" class="edge">
<title>20&#45;&gt;19</title>
<path fill="none" stroke="#c0c0c0" stroke-width="2" d="M89,-1655.8314C89,-1648.131 89,-1638.9743 89,-1630.4166"/>
<polygon fill="#c0c0c0" stroke="#c0c0c0" stroke-width="2" points="92.5001,-1630.4132 89,-1620.4133 85.5001,-1630.4133 92.5001,-1630.4132"/>
</g>
<!-- 21&#45;&gt;16 -->
<g id="edge23" class="edge">
<title>21&#45;&gt;16</title>
<path fill="none" stroke="#c0c0c0" stroke-width="2" d="M123.3923,-1367.8314C118.2022,-1359.7079 111.9768,-1349.9637 106.2575,-1341.0118"/>
<polygon fill="#c0c0c0" stroke="#c0c0c0" stroke-width="2" points="109.0974,-1338.9559 100.764,-1332.4133 103.1985,-1342.7246 109.0974,-1338.9559"/>
</g>
<!-- 22&#45;&gt;15 -->
<g id="edge21" class="edge">
<title>22&#45;&gt;15</title>
<path fill="none" stroke="#c0c0c0" stroke-width="2" d="M117.411,-1223.8314C113.1683,-1215.7925 108.0879,-1206.1666 103.404,-1197.2918"/>
<polygon fill="#c0c0c0" stroke="#c0c0c0" stroke-width="2" points="106.4811,-1195.6235 98.7181,-1188.4133 100.2904,-1198.8908 106.4811,-1195.6235"/>
</g>
<!-- 23 -->
<g id="node24" class="node">
<title>23</title>
<path fill="none" stroke="#56d89a" stroke-width="2" stroke-dasharray="5,2" d="M366,-972C366,-972 256,-972 256,-972 250,-972 244,-966 244,-960 244,-960 244,-948 244,-948 244,-942 250,-936 256,-936 256,-936 366,-936 366,-936 372,-936 378,-942 378,-948 378,-948 378,-960 378,-960 378,-966 372,-972 366,-972"/>
<text text-anchor="middle" x="311" y="-951.5" font-family="sans" font-size="10.00" fill="#000000">CalculateContamination</text>
</g>
<!-- 23&#45;&gt;12 -->
<g id="edge16" class="edge">
<title>23&#45;&gt;12</title>
<path fill="none" stroke="#c0c0c0" stroke-width="2" d="M267.3448,-935.8314C244.1042,-926.159 215.3432,-914.1891 190.8477,-903.9944"/>
<polygon fill="#c0c0c0" stroke="#c0c0c0" stroke-width="2" points="191.9185,-900.6491 181.3413,-900.038 189.2288,-907.1117 191.9185,-900.6491"/>
</g>
<!-- 24&#45;&gt;23 -->
<g id="edge29" class="edge">
<title>24&#45;&gt;23</title>
<path fill="none" stroke="#c0c0c0" stroke-width="2" d="M293.0562,-1007.8314C295.6512,-1000.0463 298.7424,-990.7729 301.6218,-982.1347"/>
<polygon fill="#c0c0c0" stroke="#c0c0c0" stroke-width="2" points="305.0203,-983.0069 304.8622,-972.4133 298.3795,-980.7933 305.0203,-983.0069"/>
</g>
<!-- 25&#45;&gt;12 -->
<g id="edge17" class="edge">
<title>25&#45;&gt;12</title>
<path fill="none" stroke="#c0c0c0" stroke-width="2" d="M158.1868,-935.8314C155.2356,-927.9617 151.7142,-918.5712 148.445,-909.8533"/>
<polygon fill="#c0c0c0" stroke="#c0c0c0" stroke-width="2" points="151.6934,-908.5476 144.905,-900.4133 145.1391,-911.0055 151.6934,-908.5476"/>
</g>
</g>
</svg>
