<?xml version="1.0" encoding="UTF-8" standalone="no"?>
<!DOCTYPE svg PUBLIC "-//W3C//DTD SVG 1.1//EN"
 "http://www.w3.org/Graphics/SVG/1.1/DTD/svg11.dtd">
<!-- Generated by graphviz version 2.42.3 (20191010.1750)
 -->
<!-- Title: snakemake_dag Pages: 1 -->
<svg width="669pt" height="620pt"
 viewBox="0.00 0.00 669.00 620.00" xmlns="http://www.w3.org/2000/svg" xmlns:xlink="http://www.w3.org/1999/xlink">
<g id="graph0" class="graph" transform="scale(1 1) rotate(0) translate(4 616)">
<title>snakemake_dag</title>
<polygon fill="white" stroke="transparent" points="-4,4 -4,-616 665,-616 665,4 -4,4"/>
<!-- 0 -->
<g id="node1" class="node">
<title>0</title>
<path fill="none" stroke="#afd856" stroke-width="2" stroke-dasharray="5,2" d="M344,-36C344,-36 314,-36 314,-36 308,-36 302,-30 302,-24 302,-24 302,-12 302,-12 302,-6 308,0 314,0 314,0 344,0 344,0 350,0 356,-6 356,-12 356,-12 356,-24 356,-24 356,-30 350,-36 344,-36"/>
<text text-anchor="middle" x="329" y="-15.5" font-family="sans" font-size="10.00">done</text>
</g>
<!-- 1 -->
<g id="node2" class="node">
<title>1</title>
<path fill="none" stroke="#9fd856" stroke-width="2" stroke-dasharray="5,2" d="M147.5,-252C147.5,-252 88.5,-252 88.5,-252 82.5,-252 76.5,-246 76.5,-240 76.5,-240 76.5,-228 76.5,-228 76.5,-222 82.5,-216 88.5,-216 88.5,-216 147.5,-216 147.5,-216 153.5,-216 159.5,-222 159.5,-228 159.5,-228 159.5,-240 159.5,-240 159.5,-246 153.5,-252 147.5,-252"/>
<text text-anchor="middle" x="118" y="-231.5" font-family="sans" font-size="10.00">MACS2_broad</text>
</g>
<!-- 1&#45;&gt;0 -->
<g id="edge1" class="edge">
<title>1&#45;&gt;0</title>
<path fill="none" stroke="grey" stroke-width="2" d="M112.76,-215.68C104.17,-183.45 91.22,-113.77 125,-72 145.76,-46.33 238.63,-30.51 291.63,-23.41"/>
<polygon fill="grey" stroke="grey" stroke-width="2" points="292.19,-26.87 301.66,-22.11 291.29,-19.93 292.19,-26.87"/>
</g>
<!-- 2 -->
<g id="node3" class="node">
<title>2</title>
<path fill="none" stroke="#56d8d0" stroke-width="2" stroke-dasharray="5,2" d="M194.5,-324C194.5,-324 129.5,-324 129.5,-324 123.5,-324 117.5,-318 117.5,-312 117.5,-312 117.5,-300 117.5,-300 117.5,-294 123.5,-288 129.5,-288 129.5,-288 194.5,-288 194.5,-288 200.5,-288 206.5,-294 206.5,-300 206.5,-300 206.5,-312 206.5,-312 206.5,-318 200.5,-324 194.5,-324"/>
<text text-anchor="middle" x="162" y="-303.5" font-family="sans" font-size="10.00">samtools_filter</text>
</g>
<!-- 2&#45;&gt;1 -->
<g id="edge9" class="edge">
<title>2&#45;&gt;1</title>
<path fill="none" stroke="grey" stroke-width="2" d="M151.12,-287.7C146.01,-279.56 139.8,-269.69 134.16,-260.7"/>
<polygon fill="grey" stroke="grey" stroke-width="2" points="137.04,-258.71 128.75,-252.1 131.11,-262.43 137.04,-258.71"/>
</g>
<!-- 12 -->
<g id="node13" class="node">
<title>12</title>
<path fill="none" stroke="#567bd8" stroke-width="2" stroke-dasharray="5,2" d="M216.5,-180C216.5,-180 159.5,-180 159.5,-180 153.5,-180 147.5,-174 147.5,-168 147.5,-168 147.5,-156 147.5,-156 147.5,-150 153.5,-144 159.5,-144 159.5,-144 216.5,-144 216.5,-144 222.5,-144 228.5,-150 228.5,-156 228.5,-156 228.5,-168 228.5,-168 228.5,-174 222.5,-180 216.5,-180"/>
<text text-anchor="middle" x="188" y="-159.5" font-family="sans" font-size="10.00">bamcompare</text>
</g>
<!-- 2&#45;&gt;12 -->
<g id="edge19" class="edge">
<title>2&#45;&gt;12</title>
<path fill="none" stroke="grey" stroke-width="2" d="M165.14,-287.87C169.57,-263.67 177.71,-219.21 182.98,-190.39"/>
<polygon fill="grey" stroke="grey" stroke-width="2" points="186.49,-190.66 184.85,-180.19 179.61,-189.4 186.49,-190.66"/>
</g>
<!-- 15 -->
<g id="node16" class="node">
<title>15</title>
<path fill="none" stroke="#d88d56" stroke-width="2" stroke-dasharray="5,2" d="M318,-252C318,-252 288,-252 288,-252 282,-252 276,-246 276,-240 276,-240 276,-228 276,-228 276,-222 282,-216 288,-216 288,-216 318,-216 318,-216 324,-216 330,-222 330,-228 330,-228 330,-240 330,-240 330,-246 324,-252 318,-252"/>
<text text-anchor="middle" x="303" y="-231.5" font-family="sans" font-size="10.00">MACS2</text>
</g>
<!-- 2&#45;&gt;15 -->
<g id="edge23" class="edge">
<title>2&#45;&gt;15</title>
<path fill="none" stroke="grey" stroke-width="2" d="M196.49,-287.88C217.8,-277.3 245.1,-263.74 266.73,-253.01"/>
<polygon fill="grey" stroke="grey" stroke-width="2" points="268.52,-256.03 275.92,-248.44 265.41,-249.76 268.52,-256.03"/>
</g>
<!-- 3 -->
<g id="node4" class="node">
<title>3</title>
<path fill="none" stroke="#d85656" stroke-width="2" stroke-dasharray="5,2" d="M170,-396C170,-396 134,-396 134,-396 128,-396 122,-390 122,-384 122,-384 122,-372 122,-372 122,-366 128,-360 134,-360 134,-360 170,-360 170,-360 176,-360 182,-366 182,-372 182,-372 182,-384 182,-384 182,-390 176,-396 170,-396"/>
<text text-anchor="middle" x="152" y="-375.5" font-family="sans" font-size="10.00">MarkDup</text>
</g>
<!-- 3&#45;&gt;2 -->
<g id="edge11" class="edge">
<title>3&#45;&gt;2</title>
<path fill="none" stroke="grey" stroke-width="2" d="M154.47,-359.7C155.57,-351.98 156.9,-342.71 158.13,-334.11"/>
<polygon fill="grey" stroke="grey" stroke-width="2" points="161.61,-334.5 159.56,-324.1 154.68,-333.51 161.61,-334.5"/>
</g>
<!-- 4 -->
<g id="node5" class="node">
<title>4</title>
<path fill="none" stroke="#56d8a9" stroke-width="2" stroke-dasharray="5,2" d="M163,-468C163,-468 101,-468 101,-468 95,-468 89,-462 89,-456 89,-456 89,-444 89,-444 89,-438 95,-432 101,-432 101,-432 163,-432 163,-432 169,-432 175,-438 175,-444 175,-444 175,-456 175,-456 175,-462 169,-468 163,-468"/>
<text text-anchor="middle" x="132" y="-447.5" font-family="sans" font-size="10.00">samtools_sort</text>
</g>
<!-- 4&#45;&gt;3 -->
<g id="edge12" class="edge">
<title>4&#45;&gt;3</title>
<path fill="none" stroke="grey" stroke-width="2" d="M136.94,-431.7C139.17,-423.9 141.85,-414.51 144.33,-405.83"/>
<polygon fill="grey" stroke="grey" stroke-width="2" points="147.73,-406.68 147.11,-396.1 141,-404.76 147.73,-406.68"/>
</g>
<!-- 5 -->
<g id="node6" class="node">
<title>5</title>
<path fill="none" stroke="#56d89a" stroke-width="2" stroke-dasharray="5,2" d="M163.5,-540C163.5,-540 18.5,-540 18.5,-540 12.5,-540 6.5,-534 6.5,-528 6.5,-528 6.5,-516 6.5,-516 6.5,-510 12.5,-504 18.5,-504 18.5,-504 163.5,-504 163.5,-504 169.5,-504 175.5,-510 175.5,-516 175.5,-516 175.5,-528 175.5,-528 175.5,-534 169.5,-540 163.5,-540"/>
<text text-anchor="middle" x="91" y="-525" font-family="sans" font-size="10.00">samtools_merge</text>
<text text-anchor="middle" x="91" y="-514" font-family="sans" font-size="10.00">sample: F23_nofeeder_d6_ChIP</text>
</g>
<!-- 5&#45;&gt;4 -->
<g id="edge13" class="edge">
<title>5&#45;&gt;4</title>
<path fill="none" stroke="grey" stroke-width="2" d="M101.13,-503.7C105.85,-495.64 111.56,-485.89 116.78,-476.98"/>
<polygon fill="grey" stroke="grey" stroke-width="2" points="119.95,-478.5 121.98,-468.1 113.91,-474.96 119.95,-478.5"/>
</g>
<!-- 6 -->
<g id="node7" class="node">
<title>6</title>
<path fill="none" stroke="#56d86b" stroke-width="2" stroke-dasharray="5,2" d="M164,-612C164,-612 12,-612 12,-612 6,-612 0,-606 0,-600 0,-600 0,-588 0,-588 0,-582 6,-576 12,-576 12,-576 164,-576 164,-576 170,-576 176,-582 176,-588 176,-588 176,-600 176,-600 176,-606 170,-612 164,-612"/>
<text text-anchor="middle" x="88" y="-597" font-family="sans" font-size="10.00">bwa</text>
<text text-anchor="middle" x="88" y="-586" font-family="sans" font-size="10.00">bamTmp: F23_nofeeder_d6_ChIP</text>
</g>
<!-- 6&#45;&gt;5 -->
<g id="edge14" class="edge">
<title>6&#45;&gt;5</title>
<path fill="none" stroke="grey" stroke-width="2" d="M88.74,-575.7C89.07,-567.98 89.47,-558.71 89.84,-550.11"/>
<polygon fill="grey" stroke="grey" stroke-width="2" points="93.34,-550.25 90.27,-540.1 86.34,-549.95 93.34,-550.25"/>
</g>
<!-- 7 -->
<g id="node8" class="node">
<title>7</title>
<path fill="none" stroke="#56d8d0" stroke-width="2" stroke-dasharray="5,2" d="M303.5,-324C303.5,-324 238.5,-324 238.5,-324 232.5,-324 226.5,-318 226.5,-312 226.5,-312 226.5,-300 226.5,-300 226.5,-294 232.5,-288 238.5,-288 238.5,-288 303.5,-288 303.5,-288 309.5,-288 315.5,-294 315.5,-300 315.5,-300 315.5,-312 315.5,-312 315.5,-318 309.5,-324 303.5,-324"/>
<text text-anchor="middle" x="271" y="-303.5" font-family="sans" font-size="10.00">samtools_filter</text>
</g>
<!-- 7&#45;&gt;1 -->
<g id="edge10" class="edge">
<title>7&#45;&gt;1</title>
<path fill="none" stroke="grey" stroke-width="2" d="M233.57,-287.88C212.75,-278.35 186.65,-266.41 164.52,-256.28"/>
<polygon fill="grey" stroke="grey" stroke-width="2" points="165.86,-253.05 155.31,-252.07 162.94,-259.41 165.86,-253.05"/>
</g>
<!-- 7&#45;&gt;12 -->
<g id="edge20" class="edge">
<title>7&#45;&gt;12</title>
<path fill="none" stroke="grey" stroke-width="2" d="M260.99,-287.87C246.59,-263.24 219.94,-217.64 203.13,-188.88"/>
<polygon fill="grey" stroke="grey" stroke-width="2" points="206.12,-187.06 198.05,-180.19 200.07,-190.59 206.12,-187.06"/>
</g>
<!-- 7&#45;&gt;15 -->
<g id="edge24" class="edge">
<title>7&#45;&gt;15</title>
<path fill="none" stroke="grey" stroke-width="2" d="M278.91,-287.7C282.55,-279.73 286.95,-270.1 290.99,-261.26"/>
<polygon fill="grey" stroke="grey" stroke-width="2" points="294.21,-262.65 295.18,-252.1 287.84,-259.74 294.21,-262.65"/>
</g>
<!-- 8 -->
<g id="node9" class="node">
<title>8</title>
<path fill="none" stroke="#d85656" stroke-width="2" stroke-dasharray="5,2" d="M292,-396C292,-396 256,-396 256,-396 250,-396 244,-390 244,-384 244,-384 244,-372 244,-372 244,-366 250,-360 256,-360 256,-360 292,-360 292,-360 298,-360 304,-366 304,-372 304,-372 304,-384 304,-384 304,-390 298,-396 292,-396"/>
<text text-anchor="middle" x="274" y="-375.5" font-family="sans" font-size="10.00">MarkDup</text>
</g>
<!-- 8&#45;&gt;7 -->
<g id="edge15" class="edge">
<title>8&#45;&gt;7</title>
<path fill="none" stroke="grey" stroke-width="2" d="M273.26,-359.7C272.93,-351.98 272.53,-342.71 272.16,-334.11"/>
<polygon fill="grey" stroke="grey" stroke-width="2" points="275.66,-333.95 271.73,-324.1 268.66,-334.25 275.66,-333.95"/>
</g>
<!-- 9 -->
<g id="node10" class="node">
<title>9</title>
<path fill="none" stroke="#56d8a9" stroke-width="2" stroke-dasharray="5,2" d="M309,-468C309,-468 247,-468 247,-468 241,-468 235,-462 235,-456 235,-456 235,-444 235,-444 235,-438 241,-432 247,-432 247,-432 309,-432 309,-432 315,-432 321,-438 321,-444 321,-444 321,-456 321,-456 321,-462 315,-468 309,-468"/>
<text text-anchor="middle" x="278" y="-447.5" font-family="sans" font-size="10.00">samtools_sort</text>
</g>
<!-- 9&#45;&gt;8 -->
<g id="edge16" class="edge">
<title>9&#45;&gt;8</title>
<path fill="none" stroke="grey" stroke-width="2" d="M277.01,-431.7C276.57,-423.98 276.04,-414.71 275.55,-406.11"/>
<polygon fill="grey" stroke="grey" stroke-width="2" points="279.04,-405.89 274.98,-396.1 272.05,-406.29 279.04,-405.89"/>
</g>
<!-- 10 -->
<g id="node11" class="node">
<title>10</title>
<path fill="none" stroke="#56d89a" stroke-width="2" stroke-dasharray="5,2" d="M356,-540C356,-540 208,-540 208,-540 202,-540 196,-534 196,-528 196,-528 196,-516 196,-516 196,-510 202,-504 208,-504 208,-504 356,-504 356,-504 362,-504 368,-510 368,-516 368,-516 368,-528 368,-528 368,-534 362,-540 356,-540"/>
<text text-anchor="middle" x="282" y="-525" font-family="sans" font-size="10.00">samtools_merge</text>
<text text-anchor="middle" x="282" y="-514" font-family="sans" font-size="10.00">sample: F23_nofeeder_d6_Input</text>
</g>
<!-- 10&#45;&gt;9 -->
<g id="edge17" class="edge">
<title>10&#45;&gt;9</title>
<path fill="none" stroke="grey" stroke-width="2" d="M281.01,-503.7C280.57,-495.98 280.04,-486.71 279.55,-478.11"/>
<polygon fill="grey" stroke="grey" stroke-width="2" points="283.04,-477.89 278.98,-468.1 276.05,-478.29 283.04,-477.89"/>
</g>
<!-- 11 -->
<g id="node12" class="node">
<title>11</title>
<path fill="none" stroke="#56d86b" stroke-width="2" stroke-dasharray="5,2" d="M361.5,-612C361.5,-612 206.5,-612 206.5,-612 200.5,-612 194.5,-606 194.5,-600 194.5,-600 194.5,-588 194.5,-588 194.5,-582 200.5,-576 206.5,-576 206.5,-576 361.5,-576 361.5,-576 367.5,-576 373.5,-582 373.5,-588 373.5,-588 373.5,-600 373.5,-600 373.5,-606 367.5,-612 361.5,-612"/>
<text text-anchor="middle" x="284" y="-597" font-family="sans" font-size="10.00">bwa</text>
<text text-anchor="middle" x="284" y="-586" font-family="sans" font-size="10.00">bamTmp: F23_nofeeder_d6_Input</text>
</g>
<!-- 11&#45;&gt;10 -->
<g id="edge18" class="edge">
<title>11&#45;&gt;10</title>
<path fill="none" stroke="grey" stroke-width="2" d="M283.51,-575.7C283.29,-567.98 283.02,-558.71 282.77,-550.11"/>
<polygon fill="grey" stroke="grey" stroke-width="2" points="286.27,-550 282.49,-540.1 279.28,-550.2 286.27,-550"/>
</g>
<!-- 12&#45;&gt;0 -->
<g id="edge2" class="edge">
<title>12&#45;&gt;0</title>
<path fill="none" stroke="grey" stroke-width="2" d="M165.12,-143.9C143.22,-125.45 116,-95.55 134,-72 153.09,-47.03 240.96,-31.05 292,-23.71"/>
<polygon fill="grey" stroke="grey" stroke-width="2" points="292.57,-27.17 301.99,-22.32 291.6,-20.23 292.57,-27.17"/>
</g>
<!-- 16 -->
<g id="node17" class="node">
<title>16</title>
<path fill="none" stroke="#68d856" stroke-width="2" stroke-dasharray="5,2" d="M220.5,-108C220.5,-108 155.5,-108 155.5,-108 149.5,-108 143.5,-102 143.5,-96 143.5,-96 143.5,-84 143.5,-84 143.5,-78 149.5,-72 155.5,-72 155.5,-72 220.5,-72 220.5,-72 226.5,-72 232.5,-78 232.5,-84 232.5,-84 232.5,-96 232.5,-96 232.5,-102 226.5,-108 220.5,-108"/>
<text text-anchor="middle" x="188" y="-87.5" font-family="sans" font-size="10.00">heatmap_peak</text>
</g>
<!-- 12&#45;&gt;16 -->
<g id="edge25" class="edge">
<title>12&#45;&gt;16</title>
<path fill="none" stroke="grey" stroke-width="2" d="M188,-143.7C188,-135.98 188,-126.71 188,-118.11"/>
<polygon fill="grey" stroke="grey" stroke-width="2" points="191.5,-118.1 188,-108.1 184.5,-118.1 191.5,-118.1"/>
</g>
<!-- 13 -->
<g id="node14" class="node">
<title>13</title>
<path fill="none" stroke="#56d0d8" stroke-width="2" stroke-dasharray="5,2" d="M313,-108C313,-108 263,-108 263,-108 257,-108 251,-102 251,-96 251,-96 251,-84 251,-84 251,-78 257,-72 263,-72 263,-72 313,-72 313,-72 319,-72 325,-78 325,-84 325,-84 325,-96 325,-96 325,-102 319,-108 313,-108"/>
<text text-anchor="middle" x="288" y="-87.5" font-family="sans" font-size="10.00">nearbygene</text>
</g>
<!-- 13&#45;&gt;0 -->
<g id="edge3" class="edge">
<title>13&#45;&gt;0</title>
<path fill="none" stroke="grey" stroke-width="2" d="M298.13,-71.7C302.85,-63.64 308.56,-53.89 313.78,-44.98"/>
<polygon fill="grey" stroke="grey" stroke-width="2" points="316.95,-46.5 318.98,-36.1 310.91,-42.96 316.95,-46.5"/>
</g>
<!-- 14 -->
<g id="node15" class="node">
<title>14</title>
<path fill="none" stroke="#56d8c1" stroke-width="2" stroke-dasharray="5,2" d="M336,-180C336,-180 306,-180 306,-180 300,-180 294,-174 294,-168 294,-168 294,-156 294,-156 294,-150 300,-144 306,-144 306,-144 336,-144 336,-144 342,-144 348,-150 348,-156 348,-156 348,-168 348,-168 348,-174 342,-180 336,-180"/>
<text text-anchor="middle" x="321" y="-159.5" font-family="sans" font-size="10.00">filter</text>
</g>
<!-- 14&#45;&gt;13 -->
<g id="edge21" class="edge">
<title>14&#45;&gt;13</title>
<path fill="none" stroke="grey" stroke-width="2" d="M312.84,-143.7C309.09,-135.73 304.55,-126.1 300.38,-117.26"/>
<polygon fill="grey" stroke="grey" stroke-width="2" points="303.49,-115.66 296.06,-108.1 297.16,-118.64 303.49,-115.66"/>
</g>
<!-- 14&#45;&gt;16 -->
<g id="edge26" class="edge">
<title>14&#45;&gt;16</title>
<path fill="none" stroke="grey" stroke-width="2" d="M293.76,-146.67C275.23,-136.91 250.35,-123.82 229.38,-112.78"/>
<polygon fill="grey" stroke="grey" stroke-width="2" points="230.84,-109.59 220.36,-108.03 227.58,-115.79 230.84,-109.59"/>
</g>
<!-- 17 -->
<g id="node18" class="node">
<title>17</title>
<path fill="none" stroke="#d8d356" stroke-width="2" stroke-dasharray="5,2" d="M385,-108C385,-108 355,-108 355,-108 349,-108 343,-102 343,-96 343,-96 343,-84 343,-84 343,-78 349,-72 355,-72 355,-72 385,-72 385,-72 391,-72 397,-78 397,-84 397,-84 397,-96 397,-96 397,-102 391,-108 385,-108"/>
<text text-anchor="middle" x="370" y="-87.5" font-family="sans" font-size="10.00">meme</text>
</g>
<!-- 14&#45;&gt;17 -->
<g id="edge27" class="edge">
<title>14&#45;&gt;17</title>
<path fill="none" stroke="grey" stroke-width="2" d="M333.11,-143.7C338.87,-135.47 345.86,-125.48 352.21,-116.42"/>
<polygon fill="grey" stroke="grey" stroke-width="2" points="355.16,-118.3 358.03,-108.1 349.42,-114.29 355.16,-118.3"/>
</g>
<!-- 20 -->
<g id="node21" class="node">
<title>20</title>
<path fill="none" stroke="#88d856" stroke-width="2" stroke-dasharray="5,2" d="M457,-108C457,-108 427,-108 427,-108 421,-108 415,-102 415,-96 415,-96 415,-84 415,-84 415,-78 421,-72 427,-72 427,-72 457,-72 457,-72 463,-72 469,-78 469,-84 469,-84 469,-96 469,-96 469,-102 463,-108 457,-108"/>
<text text-anchor="middle" x="442" y="-87.5" font-family="sans" font-size="10.00">HOMER</text>
</g>
<!-- 14&#45;&gt;20 -->
<g id="edge30" class="edge">
<title>14&#45;&gt;20</title>
<path fill="none" stroke="grey" stroke-width="2" d="M348.15,-145.29C365.28,-135.38 387.59,-122.48 406.16,-111.73"/>
<polygon fill="grey" stroke="grey" stroke-width="2" points="408.03,-114.69 414.94,-106.66 404.53,-108.63 408.03,-114.69"/>
</g>
<!-- 21 -->
<g id="node22" class="node">
<title>21</title>
<path fill="none" stroke="#d89c56" stroke-width="2" stroke-dasharray="5,2" d="M556.5,-108C556.5,-108 499.5,-108 499.5,-108 493.5,-108 487.5,-102 487.5,-96 487.5,-96 487.5,-84 487.5,-84 487.5,-78 493.5,-72 499.5,-72 499.5,-72 556.5,-72 556.5,-72 562.5,-72 568.5,-78 568.5,-84 568.5,-84 568.5,-96 568.5,-96 568.5,-102 562.5,-108 556.5,-108"/>
<text text-anchor="middle" x="528" y="-87.5" font-family="sans" font-size="10.00">Homer_motif</text>
</g>
<!-- 14&#45;&gt;21 -->
<g id="edge31" class="edge">
<title>14&#45;&gt;21</title>
<path fill="none" stroke="grey" stroke-width="2" d="M348.23,-151.83C377.72,-141.89 426.37,-125.48 477.73,-108.09"/>
<polygon fill="grey" stroke="grey" stroke-width="2" points="479,-111.35 487.34,-104.83 476.75,-104.73 479,-111.35"/>
</g>
<!-- 15&#45;&gt;14 -->
<g id="edge22" class="edge">
<title>15&#45;&gt;14</title>
<path fill="none" stroke="grey" stroke-width="2" d="M307.45,-215.7C309.45,-207.9 311.87,-198.51 314.1,-189.83"/>
<polygon fill="grey" stroke="grey" stroke-width="2" points="317.5,-190.66 316.6,-180.1 310.72,-188.92 317.5,-190.66"/>
</g>
<!-- 19 -->
<g id="node20" class="node">
<title>19</title>
<path fill="none" stroke="#568ad8" stroke-width="2" stroke-dasharray="5,2" d="M561.5,-180C561.5,-180 502.5,-180 502.5,-180 496.5,-180 490.5,-174 490.5,-168 490.5,-168 490.5,-156 490.5,-156 490.5,-150 496.5,-144 502.5,-144 502.5,-144 561.5,-144 561.5,-144 567.5,-144 573.5,-150 573.5,-156 573.5,-156 573.5,-168 573.5,-168 573.5,-174 567.5,-180 561.5,-180"/>
<text text-anchor="middle" x="532" y="-159.5" font-family="sans" font-size="10.00">peak_summit</text>
</g>
<!-- 15&#45;&gt;19 -->
<g id="edge29" class="edge">
<title>15&#45;&gt;19</title>
<path fill="none" stroke="grey" stroke-width="2" d="M330.17,-224.7C367.11,-213.4 433.92,-192.98 480.51,-178.74"/>
<polygon fill="grey" stroke="grey" stroke-width="2" points="481.59,-182.07 490.13,-175.8 479.54,-175.38 481.59,-182.07"/>
</g>
<!-- 16&#45;&gt;0 -->
<g id="edge4" class="edge">
<title>16&#45;&gt;0</title>
<path fill="none" stroke="grey" stroke-width="2" d="M222.49,-71.88C243.8,-61.3 271.1,-47.74 292.73,-37.01"/>
<polygon fill="grey" stroke="grey" stroke-width="2" points="294.52,-40.03 301.92,-32.44 291.41,-33.76 294.52,-40.03"/>
</g>
<!-- 17&#45;&gt;0 -->
<g id="edge5" class="edge">
<title>17&#45;&gt;0</title>
<path fill="none" stroke="grey" stroke-width="2" d="M359.87,-71.7C355.15,-63.64 349.44,-53.89 344.22,-44.98"/>
<polygon fill="grey" stroke="grey" stroke-width="2" points="347.09,-42.96 339.02,-36.1 341.05,-46.5 347.09,-42.96"/>
</g>
<!-- 18 -->
<g id="node19" class="node">
<title>18</title>
<path fill="none" stroke="#56d87b" stroke-width="2" stroke-dasharray="5,2" d="M649,-108C649,-108 599,-108 599,-108 593,-108 587,-102 587,-96 587,-96 587,-84 587,-84 587,-78 593,-72 599,-72 599,-72 649,-72 649,-72 655,-72 661,-78 661,-84 661,-84 661,-96 661,-96 661,-102 655,-108 649,-108"/>
<text text-anchor="middle" x="624" y="-87.5" font-family="sans" font-size="10.00">meme_chip</text>
</g>
<!-- 18&#45;&gt;0 -->
<g id="edge6" class="edge">
<title>18&#45;&gt;0</title>
<path fill="none" stroke="grey" stroke-width="2" d="M587,-74.8C583.97,-73.8 580.94,-72.85 578,-72 504.04,-50.58 415.43,-33.77 366.36,-25.21"/>
<polygon fill="grey" stroke="grey" stroke-width="2" points="366.66,-21.72 356.21,-23.47 365.47,-28.61 366.66,-21.72"/>
</g>
<!-- 19&#45;&gt;18 -->
<g id="edge28" class="edge">
<title>19&#45;&gt;18</title>
<path fill="none" stroke="grey" stroke-width="2" d="M554.74,-143.7C566.44,-134.8 580.86,-123.82 593.51,-114.2"/>
<polygon fill="grey" stroke="grey" stroke-width="2" points="595.68,-116.94 601.52,-108.1 591.44,-111.37 595.68,-116.94"/>
</g>
<!-- 20&#45;&gt;0 -->
<g id="edge7" class="edge">
<title>20&#45;&gt;0</title>
<path fill="none" stroke="grey" stroke-width="2" d="M414.93,-72.23C399.95,-62.95 381.13,-51.29 364.93,-41.26"/>
<polygon fill="grey" stroke="grey" stroke-width="2" points="366.58,-38.16 356.24,-35.87 362.9,-44.11 366.58,-38.16"/>
</g>
<!-- 21&#45;&gt;0 -->
<g id="edge8" class="edge">
<title>21&#45;&gt;0</title>
<path fill="none" stroke="grey" stroke-width="2" d="M487.25,-74.67C451.54,-62.11 400.11,-44.01 365.67,-31.9"/>
<polygon fill="grey" stroke="grey" stroke-width="2" points="366.6,-28.52 356,-28.5 364.28,-35.12 366.6,-28.52"/>
</g>
</g>
</svg>
